<?xml version="1.0" encoding="UTF-8" standalone="no"?>
<svg
   width="900px"
   height="900px"
   viewBox="0 0 900 900"
   version="1.1"
   xml:space="preserve"
   id="SVGRoot"
   inkscape:version="1.4.2 (f4327f4, 2025-05-13)"
   sodipodi:docname="Said Ariza.svg"
   xmlns:inkscape="http://www.inkscape.org/namespaces/inkscape"
   xmlns:sodipodi="http://sodipodi.sourceforge.net/DTD/sodipodi-0.dtd"
   xmlns="http://www.w3.org/2000/svg"
   xmlns:svg="http://www.w3.org/2000/svg"><defs
   id="defs126" />
<sodipodi:namedview
   pagecolor="#a9a9a9"
   bordercolor="#292929"
   borderopacity="1"
   inkscape:showpageshadow="2"
   inkscape:pageopacity="0.0"
   inkscape:pagecheckerboard="0"
   inkscape:deskcolor="#232323"
   id="namedview1"
   inkscape:zoom="0.69666667"
   inkscape:cx="450"
   inkscape:cy="335.16746"
   inkscape:window-width="1600"
   inkscape:window-height="829"
   inkscape:window-x="-8"
   inkscape:window-y="-8"
   inkscape:window-maximized="1"
   inkscape:current-layer="SVGRoot" />
<style
   type="text/css"
   id="style1">
g.prefab path {
  vector-effect:non-scaling-stroke;
  -inkscape-stroke:hairline;
  fill: none;
  fill-opacity: 1;
  stroke-opacity: 1;
  stroke: #00349c;
}
</style>
<g
   inkscape:label="Hive"
   style="fill: white; stroke-width: 2; stroke: black;"
   class="prefab"
   id="g126">
  <path
   d="m 458.94046,243.85936 h 40 l 20,34.64 -20,34.64 h -40 l -20,-34.64 z"
   id="path1" />
  <path
   d="m 218.94046,243.85936 h 40 l 20,34.64 -20,34.64 h -40 l -20,-34.64 z"
   id="path2" />
  <path
   d="m 338.94046,243.85936 h 40 l 20,34.64 -20,34.64 h -40 l -20,-34.64 z"
   id="path3" />
  <path
   d="m 578.94046,243.85936 h 40 l 20,34.64 -20,34.64 h -40 l -20,-34.64 z"
   id="path4" />
  <path
   d="m 698.94046,243.85936 h 40 l 20,34.64 -20,34.64 h -40 l -20,-34.64 z"
   id="path5" />
  <path
   d="m 518.94046,209.21936 h 40 l 20,34.64 -20,34.64 h -40 l -20,-34.64 z"
   id="path6" />
  <path
   d="m 278.94046,209.21936 h 40 l 20,34.64 -20,34.64 h -40 l -20,-34.64 z"
   id="path7" />
  <path
   d="m 398.94046,209.21936 h 40 l 20,34.64 -20,34.64 h -40 l -20,-34.64 z"
   id="path8" />
  <path
   d="m 638.94046,209.21936 h 40 l 20,34.64 -20,34.64 h -40 l -20,-34.64 z"
   id="path9" />
  <path
   d="m 758.94046,209.21936 h 40 l 20,34.64 -20,34.64 h -40 l -20,-34.64 z"
   id="path10" />
  <path
   d="m 518.94046,278.49936 h 40 l 20,34.64 -20,34.64 h -40 l -20,-34.64 z"
   id="path11" />
  <path
   d="m 278.94046,278.49936 h 40 l 20,34.64 -20,34.64 h -40 l -20,-34.64 z"
   id="path12" />
  <path
   d="m 398.94046,278.49936 h 40 l 20,34.64 -20,34.64 h -40 l -20,-34.64 z"
   id="path13" />
  <path
   d="m 638.94046,278.49936 h 40 l 20,34.64 -20,34.64 h -40 l -20,-34.64 z"
   id="path14" />
  <path
   d="m 758.94046,278.49936 h 40 l 20,34.64 -20,34.64 h -40 l -20,-34.64 z"
   id="path15" />
  <path
   d="m 458.94046,174.57936 h 40 l 20,34.64 -20,34.64 h -40 l -20,-34.64 z"
   id="path16" />
  <path
   d="m 218.94046,174.57936 h 40 l 20,34.64 -20,34.64 h -40 l -20,-34.64 z"
   id="path17" />
  <path
   d="m 338.94046,174.57936 h 40 l 20,34.64 -20,34.64 h -40 l -20,-34.64 z"
   id="path18" />
  <path
   d="m 578.94046,174.57936 h 40 l 20,34.64 -20,34.64 h -40 l -20,-34.64 z"
   id="path19" />
  <path
   d="m 698.94046,174.57936 h 40 l 20,34.64 -20,34.64 h -40 l -20,-34.64 z"
   id="path20" />
  <path
   d="m 458.94046,313.13936 h 40 l 20,34.64 -20,34.64 h -40 l -20,-34.64 z"
   id="path21" />
  <path
   d="m 218.94046,313.13936 h 40 l 20,34.64 -20,34.64 h -40 l -20,-34.64 z"
   id="path22" />
  <path
   d="m 338.94046,313.13936 h 40 l 20,34.64 -20,34.64 h -40 l -20,-34.64 z"
   id="path23" />
  <path
   d="m 578.94046,313.13936 h 40 l 20,34.64 -20,34.64 h -40 l -20,-34.64 z"
   id="path24" />
  <path
   d="m 698.94046,313.13936 h 40 l 20,34.64 -20,34.64 h -40 l -20,-34.64 z"
   id="path25" />
  <path
   d="m 518.94046,139.93936 h 40 l 20,34.64 -20,34.64 h -40 l -20,-34.64 z"
   id="path26" />
  <path
   d="m 278.94046,139.93936 h 40 l 20,34.64 -20,34.64 h -40 l -20,-34.64 z"
   id="path27" />
  <path
   d="m 398.94046,139.93936 h 40 l 20,34.64 -20,34.64 h -40 l -20,-34.64 z"
   id="path28" />
  <path
   d="m 638.94046,139.93936 h 40 l 20,34.64 -20,34.64 h -40 l -20,-34.64 z"
   id="path29" />
  <path
   d="m 758.94046,139.93936 h 40 l 20,34.64 -20,34.64 h -40 l -20,-34.64 z"
   id="path30" />
  <path
   d="m 518.94046,347.77936 h 40 l 20,34.64 -20,34.64 h -40 l -20,-34.64 z"
   id="path31" />
  <path
   d="m 278.94046,347.77936 h 40 l 20,34.64 -20,34.64 h -40 l -20,-34.64 z"
   id="path32" />
  <path
   d="m 398.94046,347.77936 h 40 l 20,34.64 -20,34.64 h -40 l -20,-34.64 z"
   id="path33" />
  <path
   d="m 638.94046,347.77936 h 40 l 20,34.64 -20,34.64 h -40 l -20,-34.64 z"
   id="path34" />
  <path
   d="m 758.94046,347.77936 h 40 l 20,34.64 -20,34.64 h -40 l -20,-34.64 z"
   id="path35" />
  <path
   d="m 458.94046,105.29936 h 40 l 20,34.64 -20,34.64 h -40 l -20,-34.64 z"
   id="path36" />
  <path
   d="m 218.94046,105.29936 h 40 l 20,34.64 -20,34.64 h -40 l -20,-34.64 z"
   id="path37" />
  <path
   d="m 338.94046,105.29936 h 40 l 20,34.64 -20,34.64 h -40 l -20,-34.64 z"
   id="path38" />
  <path
   d="m 578.94046,105.29936 h 40 l 20,34.64 -20,34.64 h -40 l -20,-34.64 z"
   id="path39" />
  <path
   d="m 698.94046,105.29936 h 40 l 20,34.64 -20,34.64 h -40 l -20,-34.64 z"
   id="path40" />
  <path
   d="m 458.94046,382.41936 h 40 l 20,34.64 -20,34.64 h -40 l -20,-34.64 z"
   id="path41" />
  <path
   d="m 218.94046,382.41936 h 40 l 20,34.64 -20,34.64 h -40 l -20,-34.64 z"
   id="path42" />
  <path
   d="m 338.94046,382.41936 h 40 l 20,34.64 -20,34.64 h -40 l -20,-34.64 z"
   id="path43" />
  <path
   d="m 578.94046,382.41936 h 40 l 20,34.64 -20,34.64 h -40 l -20,-34.64 z"
   id="path44" />
  <path
   d="m 698.94046,382.41936 h 40 l 20,34.64 -20,34.64 h -40 l -20,-34.64 z"
   id="path45" />
  <path
   d="m 518.94046,70.659355 h 40 l 20,34.64 -20,34.64 h -40 l -20,-34.64 z"
   id="path46" />
  <path
   d="m 278.94046,70.659355 h 40 l 20,34.64 -20,34.64 h -40 l -20,-34.64 z"
   id="path47" />
  <path
   d="m 398.94046,70.659355 h 40 l 20,34.64 -20,34.64 h -40 l -20,-34.64 z"
   id="path48" />
  <path
   d="m 638.94046,70.659355 h 40 l 20,34.64 -20,34.64 h -40 l -20,-34.64 z"
   id="path49" />
  <path
   d="m 758.94046,70.659355 h 40 l 20,34.64 -20,34.64 h -40 l -20,-34.64 z"
   id="path50" />
  <path
   d="m 518.94046,417.05936 h 40 l 20,34.64 -20,34.64 h -40 l -20,-34.64 z"
   id="path51" />
  <path
   d="m 278.94046,417.05936 h 40 l 20,34.64 -20,34.64 h -40 l -20,-34.64 z"
   id="path52" />
  <path
   d="m 398.94046,417.05936 h 40 l 20,34.64 -20,34.64 h -40 l -20,-34.64 z"
   id="path53" />
  <path
   d="m 638.94046,417.05936 h 40 l 20,34.64 -20,34.64 h -40 l -20,-34.64 z"
   id="path54" />
  <path
   d="m 758.94046,417.05936 h 40 l 20,34.64 -20,34.64 h -40 l -20,-34.64 z"
   id="path55" />
  <path
   d="m 458.94046,590.60153 h 40 l 20,34.64 -20,34.64 h -40 l -20,-34.64 z"
   id="path56" />
  <path
   d="m 218.94046,590.60153 h 40 l 20,34.64 -20,34.64 h -40 l -20,-34.64 z"
   id="path57" />
  <path
   d="m 338.94046,590.60153 h 40 l 20,34.64 -20,34.64 h -40 l -20,-34.64 z"
   id="path58" />
  <path
   d="m 578.94046,590.60153 h 40 l 20,34.64 -20,34.64 h -40 l -20,-34.64 z"
   id="path59" />
  <path
   d="m 698.94046,590.60153 h 40 l 20,34.64 -20,34.64 h -40 l -20,-34.64 z"
   id="path60" />
  <path
   d="m 518.94046,555.96153 h 40 l 20,34.64 -20,34.64 h -40 l -20,-34.64 z"
   id="path61" />
  <path
   d="m 278.94046,555.96153 h 40 l 20,34.64 -20,34.64 h -40 l -20,-34.64 z"
   id="path62" />
  <path
   d="m 398.94046,555.96153 h 40 l 20,34.64 -20,34.64 h -40 l -20,-34.64 z"
   id="path63" />
  <path
   d="m 638.94046,555.96153 h 40 l 20,34.64 -20,34.64 h -40 l -20,-34.64 z"
   id="path64" />
  <path
   d="m 758.94046,555.96153 h 40 l 20,34.64 -20,34.64 h -40 l -20,-34.64 z"
   id="path65" />
  <path
   d="m 518.94046,625.24153 h 40 l 20,34.64 -20,34.64 h -40 l -20,-34.64 z"
   id="path66" />
  <path
   d="m 278.94046,625.24153 h 40 l 20,34.64 -20,34.64 h -40 l -20,-34.64 z"
   id="path67" />
  <path
   d="m 398.94046,625.24153 h 40 l 20,34.64 -20,34.64 h -40 l -20,-34.64 z"
   id="path68" />
  <path
   d="m 638.94046,625.24153 h 40 l 20,34.64 -20,34.64 h -40 l -20,-34.64 z"
   id="path69" />
  <path
   d="m 758.94046,625.24153 h 40 l 20,34.64 -20,34.64 h -40 l -20,-34.64 z"
   id="path70" />
  <path
   d="m 458.94046,521.32153 h 40 l 20,34.64 -20,34.64 h -40 l -20,-34.64 z"
   id="path71" />
  <path
   d="m 218.94046,521.32153 h 40 l 20,34.64 -20,34.64 h -40 l -20,-34.64 z"
   id="path72" />
  <path
   d="m 338.94046,521.32153 h 40 l 20,34.64 -20,34.64 h -40 l -20,-34.64 z"
   id="path73" />
  <path
   d="m 578.94046,521.32153 h 40 l 20,34.64 -20,34.64 h -40 l -20,-34.64 z"
   id="path74" />
  <path
   d="m 698.94046,521.32153 h 40 l 20,34.64 -20,34.64 h -40 l -20,-34.64 z"
   id="path75" />
  <path
   d="m 458.94046,659.88153 h 40 l 20,34.64 -20,34.64 h -40 l -20,-34.64 z"
   id="path76" />
  <path
   d="m 218.94046,659.88153 h 40 l 20,34.64 -20,34.64 h -40 l -20,-34.64 z"
   id="path77" />
  <path
   d="m 338.94046,659.88153 h 40 l 20,34.64 -20,34.64 h -40 l -20,-34.64 z"
   id="path78" />
  <path
   d="m 578.94046,659.88153 h 40 l 20,34.64 -20,34.64 h -40 l -20,-34.64 z"
   id="path79" />
  <path
   d="m 698.94046,659.88153 h 40 l 20,34.64 -20,34.64 h -40 l -20,-34.64 z"
   id="path80" />
  <path
   d="m 518.94046,486.68153 h 40 l 20,34.64 -20,34.64 h -40 l -20,-34.64 z"
   id="path81" />
  <path
   d="m 278.94046,486.68153 h 40 l 20,34.64 -20,34.64 h -40 l -20,-34.64 z"
   id="path82" />
  <path
   d="m 398.94046,486.68153 h 40 l 20,34.64 -20,34.64 h -40 l -20,-34.64 z"
   id="path83" />
  <path
   d="m 638.94046,486.68153 h 40 l 20,34.64 -20,34.64 h -40 l -20,-34.64 z"
   id="path84" />
  <path
   d="m 758.94046,486.68153 h 40 l 20,34.64 -20,34.64 h -40 l -20,-34.64 z"
   id="path85" />
  <path
   d="m 518.94046,694.52153 h 40 l 20,34.64 -20,34.64 h -40 l -20,-34.64 z"
   id="path86" />
  <path
   d="m 278.94046,694.52153 h 40 l 20,34.64 -20,34.64 h -40 l -20,-34.64 z"
   id="path87" />
  <path
   d="m 398.94046,694.52153 h 40 l 20,34.64 -20,34.64 h -40 l -20,-34.64 z"
   id="path88" />
  <path
   d="m 638.94046,694.52153 h 40 l 20,34.64 -20,34.64 h -40 l -20,-34.64 z"
   id="path89" />
  <path
   d="m 758.94046,694.52153 h 40 l 20,34.64 -20,34.64 h -40 l -20,-34.64 z"
   id="path90" />
  <path
   d="m 458.94046,452.04153 h 40 l 20,34.64 -20,34.64 h -40 l -20,-34.64 z"
   id="path91" />
  <path
   d="m 218.94046,452.04153 h 40 l 20,34.64 -20,34.64 h -40 l -20,-34.64 z"
   id="path92" />
  <path
   d="m 338.94046,452.04153 h 40 l 20,34.64 -20,34.64 h -40 l -20,-34.64 z"
   id="path93" />
  <path
   d="m 578.94046,452.04153 h 40 l 20,34.64 -20,34.64 h -40 l -20,-34.64 z"
   id="path94" />
  <path
   d="m 698.94046,452.04153 h 40 l 20,34.64 -20,34.64 h -40 l -20,-34.64 z"
   id="path95" />
  <path
   d="m 458.94046,729.16153 h 40 l 20,34.64 -20,34.64 h -40 l -20,-34.64 z"
   id="path96" />
  <path
   d="m 218.94046,729.16153 h 40 l 20,34.64 -20,34.64 h -40 l -20,-34.64 z"
   id="path97" />
  <path
   d="m 338.94046,729.16153 h 40 l 20,34.64 -20,34.64 h -40 l -20,-34.64 z"
   id="path98" />
  <path
   d="m 578.94046,729.16153 h 40 l 20,34.64 -20,34.64 h -40 l -20,-34.64 z"
   id="path99" />
  <path
   d="m 698.94046,729.16153 h 40 l 20,34.64 -20,34.64 h -40 l -20,-34.64 z"
   id="path100" />
  <path
   d="m 518.94046,763.80153 h 40 l 20,34.64 -20,34.64 h -40 l -20,-34.64 z"
   id="path101" />
  <path
   d="m 278.94046,763.80153 h 40 l 20,34.64 -20,34.64 h -40 l -20,-34.64 z"
   id="path102" />
  <path
   d="m 398.94046,763.80153 h 40 l 20,34.64 -20,34.64 h -40 l -20,-34.64 z"
   id="path103" />
  <path
   d="m 638.94046,763.80153 h 40 l 20,34.64 -20,34.64 h -40 l -20,-34.64 z"
   id="path104" />
  <path
   d="m 758.94046,763.80153 h 40 l 20,34.64 -20,34.64 h -40 l -20,-34.64 z"
   id="path105" />
  <path
   d="m 98.94046,243.85936 h 40 l 20,34.64 -20,34.64 h -40 l -20,-34.64 z"
   id="path106" />
  <path
   d="m 158.94046,209.21936 h 40 l 20,34.64 -20,34.64 h -40 l -20,-34.64 z"
   id="path107" />
  <path
   d="m 158.94046,278.49936 h 40 l 20,34.64 -20,34.64 h -40 l -20,-34.64 z"
   id="path108" />
  <path
   d="m 98.94046,174.57936 h 40 l 20,34.64 -20,34.64 h -40 l -20,-34.64 z"
   id="path109" />
  <path
   d="m 98.94046,313.13936 h 40 l 20,34.64 -20,34.64 h -40 l -20,-34.64 z"
   id="path110" />
  <path
   d="m 158.94046,139.93936 h 40 l 20,34.64 -20,34.64 h -40 l -20,-34.64 z"
   id="path111" />
  <path
   d="m 158.94046,347.77936 h 40 l 20,34.64 -20,34.64 h -40 l -20,-34.64 z"
   id="path112" />
  <path
   d="m 98.94046,105.29936 h 40 l 20,34.64 -20,34.64 h -40 l -20,-34.64 z"
   id="path113" />
  <path
   d="m 98.94046,382.41936 h 40 l 20,34.64 -20,34.64 h -40 l -20,-34.64 z"
   id="path114" />
  <path
   d="m 158.94046,70.659355 h 40 l 20,34.64 -20,34.64 h -40 l -20,-34.64 z"
   id="path115" />
  <path
   d="m 158.94046,417.05936 h 40 l 20,34.64 -20,34.64 h -40 l -20,-34.64 z"
   id="path116" />
  <path
   d="m 98.94046,590.60153 h 40 l 20,34.64 -20,34.64 h -40 l -20,-34.64 z"
   id="path117" />
  <path
   d="m 158.94046,555.96153 h 40 l 20,34.64 -20,34.64 h -40 l -20,-34.64 z"
   id="path118" />
  <path
   d="m 158.94046,625.24153 h 40 l 20,34.64 -20,34.64 h -40 l -20,-34.64 z"
   id="path119" />
  <path
   d="m 98.94046,521.32153 h 40 l 20,34.64 -20,34.64 h -40 l -20,-34.64 z"
   id="path120" />
  <path
   d="m 98.94046,659.88153 h 40 l 20,34.64 -20,34.64 h -40 l -20,-34.64 z"
   id="path121" />
  <path
   d="m 158.94046,486.68153 h 40 l 20,34.64 -20,34.64 h -40 l -20,-34.64 z"
   id="path122" />
  <path
   d="m 158.94046,694.52153 h 40 l 20,34.64 -20,34.64 h -40 l -20,-34.64 z"
   id="path123" />
  <path
   d="m 98.94046,452.04153 h 40 l 20,34.64 -20,34.64 h -40 l -20,-34.64 z"
   id="path124" />
  <path
   d="m 98.94046,729.16153 h 40 l 20,34.64 -20,34.64 h -40 l -20,-34.64 z"
   id="path125" />
  <path
   d="m 158.94046,763.80153 h 40 l 20,34.64 -20,34.64 h -40 l -20,-34.64 z"
   id="path126" />
</g>
<path
   style="fill:#000000;stroke-width:1.43541"
   d="m 270.49261,329.95031 c -7.42755,-12.79085 -9.3675,-17.24323 -8.28687,-19.01914 0.77601,-1.2753 5.1541,-8.95775 9.72908,-17.0721 l 8.31815,-14.75336 18.81702,0.3993 18.81703,0.3993 9.58497,16.50717 9.58498,16.50718 -4.91698,8.61244 c -2.70433,4.73684 -6.99268,12.32656 -9.52966,16.86603 l -4.6127,8.25359 h -18.9036 -18.90361 z"
   id="path127" /><path
   style="fill:#000000;stroke-width:1.43541"
   d="m 390.316,329.81776 -9.44477,-16.75191 9.51033,-16.58077 9.51033,-16.58077 18.81039,-0.39952 18.8104,-0.39952 9.69967,16.89288 9.69967,16.89288 -3.98826,7.19085 c -2.19354,3.95497 -6.52245,11.5509 -9.6198,16.87984 l -5.63155,9.689 -18.95582,-0.0405 -18.95582,-0.0405 z"
   id="path128" /><path
   style="fill:#000000;stroke-width:1.43541"
   d="m 510.41582,329.88839 -9.53585,-16.76233 9.72748,-16.96825 9.72748,-16.96826 18.66029,0.0108 18.66028,0.0108 9.70516,17.06944 9.70515,17.06945 -9.67798,16.65034 -9.67799,16.65034 h -18.87909 -18.87908 z"
   id="path129" /><path
   style="fill:#000000;stroke-width:1.43541"
   d="m 632.49807,333.41437 c -12.94216,-21.99841 -12.78813,-18.56995 -1.69279,-37.67702 l 9.65819,-16.63218 18.66481,0.39957 18.66482,0.39957 9.70774,16.60781 9.70774,16.60781 -9.58214,16.40654 -9.58213,16.40654 -18.85527,0.40002 -18.85528,0.40002 z"
   id="path130" /><path
   style="fill:#000000;stroke-width:1.43541"
   d="m 751.18827,331.19559 c -4.87277,-8.47336 -9.07134,-16.16863 -9.33015,-17.1006 -0.25881,-0.93196 3.728,-9.14763 8.85958,-18.25705 l 9.33015,-16.56257 18.81387,-0.0444 18.81386,-0.0444 9.53542,16.52255 c 5.24448,9.08741 9.53541,16.86073 9.53541,17.27405 0,0.41332 -4.25249,8.15759 -9.44998,17.2095 l -9.44997,16.45802 -18.89931,-0.0245 -18.8993,-0.0245 z"
   id="path131" /><path
   style="fill:#000000;stroke-width:1.43541"
   d="m 151.18827,331.19559 c -4.87277,-8.47336 -9.07134,-16.16863 -9.33015,-17.1006 -0.25881,-0.93196 3.728,-9.14763 8.85958,-18.25705 l 9.33015,-16.56257 18.77433,-0.0444 18.77434,-0.0444 9.21609,16.01145 c 5.06886,8.80629 9.4163,16.51217 9.661,17.12417 0.2447,0.61201 -3.84631,8.58629 -9.09113,17.72062 l -9.53602,16.60788 -18.89931,-0.0245 -18.8993,-0.0245 z"
   id="path132" /><path
   style="fill:#000000;stroke-width:1.43541"
   d="m 90.17067,225.56808 -9.424845,-16.29796 9.50747,-16.70219 9.507471,-16.7022 18.972184,-0.0142 18.97218,-0.0142 7.81145,13.27751 c 12.76623,21.69939 12.57852,18.44107 2.11594,36.72819 l -9.11577,15.9331 -19.46062,0.045 -19.460614,0.045 z"
   id="path133" /><path
   style="fill:#000000;stroke-width:1.43541"
   d="m 210.31774,156.45933 -9.5856,-16.50718 9.5856,-16.50717 9.5856,-16.50718 h 19.1151 19.1151 l 9.4782,16.50718 9.47821,16.50717 -9.47821,16.50718 -9.4782,16.50718 h -19.1151 -19.1151 z"
   id="path134" /><path
   style="fill:#000000;stroke-width:1.43541"
   d="m 330.86124,157.5386 c -4.73684,-8.45885 -8.80854,-16.13306 -9.04823,-17.05378 -0.23968,-0.92073 3.63592,-8.82197 8.61244,-17.55833 l 9.04823,-15.88429 19.37799,-0.0359 19.378,-0.0359 8.97129,15.73979 c 4.93421,8.65689 8.97129,16.41576 8.97129,17.24194 0,0.82619 -4.03708,8.58506 -8.97129,17.24195 l -8.97129,15.73979 -19.378,-0.008 -19.37799,-0.008 z"
   id="path135" /><path
   style="fill:#000000;stroke-width:1.43541"
   d="m 450.38232,156.53811 -9.54488,-16.50552 9.43591,-16.58667 9.43592,-16.58667 19.35806,0.39813 19.35806,0.39812 9.31687,16.08752 9.31688,16.08753 -9.30951,16.20912 -9.30951,16.20913 -19.25646,0.39742 -19.25646,0.39741 z"
   id="path136" /><path
   style="fill:#000000;stroke-width:1.43541"
   d="m 572.89597,160.91311 c -3.91567,-6.62937 -8.19152,-14.12666 -9.50189,-16.66063 l -2.38249,-4.60724 9.22703,-15.99487 9.22703,-15.99487 19.24343,-0.39705 19.24343,-0.39706 9.61698,16.54538 9.61698,16.54538 -9.59478,16.50718 -9.59477,16.50718 h -18.99077 -18.99078 z"
   id="path137" /><path
   style="fill:#000000;stroke-width:1.43541"
   d="m 690.78947,157.36546 c -4.93421,-8.58717 -8.97129,-16.4442 -8.97129,-17.46008 0,-1.01588 4.03708,-8.85779 8.97129,-17.42648 l 8.9713,-15.57943 19.35355,0.37802 19.35355,0.37801 8.88211,15.07177 c 4.88516,8.28948 8.93324,15.83978 8.99573,16.77845 0.0625,0.93867 -3.96515,8.68987 -8.95032,17.22488 l -9.06394,15.5182 -19.28534,0.36485 -19.28534,0.36485 z"
   id="path138" /><path
   style="fill:#000000;stroke-width:1.43541"
   d="m 95.141701,789.0978 c -2.540486,-4.5301 -6.830829,-12.11215 -9.534096,-16.849 l -4.915032,-8.61244 9.637817,-16.50717 9.637818,-16.50718 18.772232,-0.39952 18.77224,-0.39952 9.69967,16.89289 9.69967,16.89287 -3.98826,7.19085 c -2.19354,3.95497 -6.52245,11.5509 -9.6198,16.87985 l -5.63155,9.68899 -18.95582,-0.017 -18.955824,-0.017 z"
   id="path139" /><path
   style="fill:#000000;stroke-width:1.43541"
   d="m 210.60745,711.4977 -9.72748,-16.96825 9.53585,-16.76233 9.53585,-16.76234 h 18.87908 18.87909 l 9.67799,16.65034 9.67798,16.65035 -9.70515,17.06944 -9.70516,17.06945 -18.66028,0.0108 -18.66029,0.0108 z"
   id="path140" /><path
   style="fill:#000000;stroke-width:1.43541"
   d="m 274.39939,822.12919 c -3.09735,-5.32895 -7.40904,-12.91866 -9.58154,-16.86603 l -3.95,-7.17704 9.18684,-15.78947 9.18685,-15.78947 19.49845,-0.39799 19.49846,-0.39798 9.01553,15.46975 c 4.95854,8.50837 9.03671,16.19427 9.06259,17.07979 0.0259,0.88552 -4.09767,8.79309 -9.16346,17.57238 l -9.21053,15.96235 -18.95582,0.0113 -18.95582,0.0113 z"
   id="path141" /><path
   style="fill:#000000;stroke-width:1.43541"
   d="m 398.55714,759.689 c -1.09312,-1.77632 -4.4339,-7.42823 -7.42395,-12.55981 -2.99004,-5.13158 -6.57674,-11.26795 -7.97043,-13.63637 l -2.53399,-4.30622 9.65868,-16.50717 9.65867,-16.50718 18.79042,-0.39957 18.79042,-0.39957 9.46619,16.30154 c 5.2064,8.96584 9.46618,16.84622 9.46618,17.51195 0,0.66573 -4.24914,8.52779 -9.44254,17.47124 l -9.44254,16.26082 h -18.5148 c -17.65471,0 -18.60713,-0.15003 -20.50231,-3.22966 z"
   id="path142" /><path
   style="fill:#000000;stroke-width:1.43541"
   d="m 510.29737,815.16938 -9.55953,-16.6488 9.27243,-16.0067 9.27242,-16.0067 h 19.7199 19.7199 l 9.21193,16.03517 9.21193,16.03517 -9.59184,16.62033 -9.59184,16.62033 h -19.05289 -19.05289 z"
   id="path143" /><path
   style="fill:#000000;stroke-width:1.43541"
   d="m 634.71045,753.27072 c -3.11054,-5.35153 -7.47093,-13.003 -9.68977,-17.00327 l -4.03424,-7.27321 9.42783,-16.411 9.42784,-16.41099 h 19.08755 19.08755 l 9.55604,16.4248 9.55603,16.4248 -9.51537,16.58955 -9.51537,16.58956 -18.86628,0.3999 -18.86629,0.39991 z"
   id="path144" /><path
   style="fill:#000000;stroke-width:1.43541"
   d="m 750.35081,815.22854 -9.64271,-16.58964 9.45358,-16.46429 9.45358,-16.46429 19.47855,0.39843 19.47855,0.39843 5.92734,10.04784 c 3.26004,5.52632 7.44131,12.74531 9.29171,16.04222 l 3.36436,5.99436 -9.64722,16.61329 -9.64722,16.61329 h -18.93391 -18.93391 z"
   id="path145" /><path
   style="fill:#000000;stroke-width:1.43541"
   d="m 750.19153,676.25058 -9.42374,-16.41231 9.61359,-16.64162 9.61358,-16.64163 h 18.93319 18.93318 l 9.64722,16.61329 9.64722,16.6133 -3.36436,5.99436 c -1.8504,3.2969 -6.03167,10.5159 -9.29171,16.04221 l -5.92734,10.04785 -19.47855,0.39843 -19.47855,0.39843 z"
   id="path146" /><path
   style="fill:#000000;stroke-width:1.43541"
   d="m 639.12592,621.88995 c -2.589,-3.27833 -17.59482,-29.98975 -17.59482,-31.32003 0,-0.71941 4.03708,-8.39597 8.97129,-17.05902 l 8.97129,-15.75099 19.37799,-0.0277 19.378,-0.0277 8.97129,15.58253 c 4.93421,8.57039 8.97129,16.32558 8.97129,17.23374 0,0.90817 -4.03708,8.73412 -8.97129,17.39101 l -8.97129,15.73979 -18.84339,0.0163 c -13.37877,0.0116 -19.2543,-0.50403 -20.26036,-1.77795 z"
   id="path147" /><path
   style="fill:#000000;stroke-width:1.43541"
   d="m 513.72752,682.17703 c -3.30899,-5.72368 -7.57478,-13.11327 -9.47954,-16.42131 l -3.4632,-6.01463 9.60573,-16.59303 9.60573,-16.59304 h 19.02126 19.02126 l 9.51428,16.72441 9.51428,16.72442 -9.45946,16.28994 -9.45945,16.28994 h -19.20228 -19.20227 z"
   id="path148" /><path
   style="fill:#000000;stroke-width:1.43541"
   d="m 390.78947,608.08317 c -4.93421,-8.58717 -8.97129,-16.44421 -8.97129,-17.46009 0,-1.01588 4.03708,-8.85779 8.97129,-17.42648 l 8.9713,-15.57942 19.35355,0.37801 19.35355,0.37802 8.88211,15.07177 c 4.88516,8.28947 8.93324,15.83977 8.99573,16.77844 0.0625,0.93867 -3.96515,8.68987 -8.95032,17.22488 l -9.06394,15.51821 -19.28534,0.36484 -19.28534,0.36485 z"
   id="path149" /><path
   style="fill:#000000;stroke-width:1.43541"
   d="m 272.29759,610.4067 c -4.2758,-7.30263 -8.55894,-14.77602 -9.51808,-16.60753 -1.55996,-2.97876 -0.78304,-5.02277 7.36542,-19.37799 l 9.10933,-16.04797 19.40448,-0.39742 19.40449,-0.39741 9.53507,16.48855 9.53507,16.48856 -9.56895,16.56436 -9.56895,16.56436 h -18.96185 -18.96185 z"
   id="path150" /><path
   style="fill:#000000;stroke-width:1.43541"
   d="m 150.38232,607.25581 -9.54488,-16.50552 9.43591,-16.58667 9.43592,-16.58666 19.35806,0.39812 19.35806,0.39813 9.31687,16.08752 9.31688,16.08752 -9.30951,16.20913 -9.30951,16.20913 -19.25646,0.39741 -19.25646,0.39742 z"
   id="path151" /><path
   style="fill:#000000;stroke-width:1.43541"
   d="m 510.40636,538.00573 -9.54531,-16.77895 9.16112,-15.87655 9.16112,-15.87655 h 19.7696 19.7696 l 9.18324,15.98524 9.18325,15.98524 -9.68957,16.67026 -9.68957,16.67027 h -18.87909 -18.87908 z"
   id="path152" /><path
   style="fill:#000000;stroke-width:1.43541"
   d="m 750.83732,538.79964 c -5.06579,-8.77929 -9.18827,-16.68686 -9.16106,-17.57238 0.0272,-0.88552 4.07353,-8.57163 8.99184,-17.08025 l 8.94237,-15.47022 19.53428,0.39845 19.53427,0.39844 5.89489,10.04785 c 3.24219,5.52632 7.39267,12.73324 9.22329,16.01538 l 3.32841,5.96753 -9.6628,16.64013 -9.6628,16.64012 -18.87608,-0.0113 -18.87608,-0.0113 z"
   id="path155" /><path
   style="fill:#000000;stroke-width:1.43541"
   d="m 630.50239,468.81821 c -4.93421,-8.57039 -8.97129,-16.27114 -8.97129,-17.11279 0,-0.84164 4.07877,-8.51345 9.06394,-17.04846 l 9.06394,-15.5182 19.28534,-0.33851 19.28535,-0.33851 9.46565,16.65423 9.46566,16.65423 -9.43922,16.33978 -9.43921,16.33978 -19.40443,-0.0245 -19.40444,-0.0245 z"
   id="path156" /><path
   style="fill:#000000;stroke-width:1.43541"
   d="m 450.27335,433.49188 -9.43591,-16.58667 9.54488,-16.50552 9.54488,-16.50552 19.25646,0.39741 19.25646,0.39742 9.30951,16.20912 9.30951,16.20913 -9.31688,16.08753 -9.31687,16.08752 -19.35806,0.39812 -19.35806,0.39813 z"
   id="path157" /><path
   style="fill:#000000;stroke-width:1.43541"
   d="m 332.24049,506.38062 c -4.49159,-7.71986 -8.96109,-15.3011 -9.93222,-16.84719 -1.5376,-2.44793 -0.51442,-4.95114 7.92067,-19.37799 l 9.68635,-16.56692 h 19.05096 19.05096 l 9.64655,16.50717 9.64654,16.50718 -2.60118,4.30622 c -1.43065,2.36842 -5.75708,9.79665 -9.61429,16.50718 l -7.01311,12.20095 -18.83735,0.39977 -18.83736,0.39976 z"
   id="path158" /><path
   style="fill:#000000;stroke-width:1.43541"
   d="m 210.94507,504.31123 c -5.09873,-8.81303 -9.4561,-16.4753 -9.68303,-17.02726 -0.22692,-0.55196 3.93446,-8.52073 9.24752,-17.70836 l 9.66012,-16.7048 h 18.8089 18.8089 l 9.14454,16.03421 c 5.02949,8.81882 9.14453,16.78285 9.14453,17.69785 0,0.915 -4.11504,8.87903 -9.14453,17.69785 l -9.14454,16.03421 H 239.00149 220.2155 Z"
   id="path159" /><path
   style="fill:#000000;stroke-width:1.43541"
   d="m 94.398316,510.63633 c -2.949349,-5.32366 -7.257806,-12.90906 -9.57435,-16.85643 l -4.211898,-7.17703 9.669535,-16.50718 9.669535,-16.50717 h 19.098592 19.09859 l 9.42784,16.41099 9.42784,16.411 -4.03425,7.27321 c -2.21884,4.00027 -6.56844,11.63327 -9.66579,16.96221 l -5.63155,9.689 -18.95582,-0.01 -18.955824,-0.01 z"
   id="path160" /><path
   style="fill:#bcd35f;stroke-width:1.43541"
   d="m 632.49807,541.54834 c -12.87139,-21.87811 -12.67882,-18.60902 -2.17118,-36.85788 l 9.14679,-15.88546 19.40516,-0.0245 19.40516,-0.0245 9.45174,16.26109 9.45174,16.26109 -9.50669,16.39442 -9.50669,16.39441 -18.92017,0.40001 -18.92017,0.40002 z"
   id="path161" /><path
   style="fill:#bcd35f;stroke-width:1.43541"
   d="m 512.63251,472.43635 c -13.4032,-22.69209 -13.16163,-18.55959 -2.19255,-37.50768 l 9.55628,-16.50762 h 18.98321 18.98322 l 9.59184,16.62033 9.59184,16.62033 -9.20958,16.03518 -9.20957,16.03517 -19.47583,0.39884 -19.47584,0.39884 z"
   id="path162" /><path
   style="fill:#bcd35f;stroke-width:1.43541"
   d="m 338.24299,586.00478 c -6.5948,-10.57245 -16.71189,-28.65045 -16.71189,-29.86209 0,-0.78361 4.03708,-8.50765 8.97129,-17.16454 l 8.97129,-15.73979 19.37799,-0.005 19.378,-0.005 8.97129,15.54892 c 4.93421,8.5519 8.97129,16.29181 8.97129,17.1998 0,0.90799 -4.03708,8.73884 -8.97129,17.40189 l -8.97129,15.75099 -18.98605,0.0522 c -18.16312,0.0499 -19.07337,-0.0878 -21.00063,-3.17747 z"
   id="path163" /><path
   style="fill:#bcd35f;stroke-width:1.43541"
   d="m 270.05872,468.26342 -9.12788,-16.11031 3.9185,-7.17703 c 2.15518,-3.94737 6.4527,-11.53708 9.55005,-16.86603 l 5.63155,-9.689 18.95582,0.0113 18.95582,0.0114 9.21053,15.96234 c 5.06579,8.77929 9.18935,16.68686 9.16346,17.57238 -0.0259,0.88552 -4.09386,8.55382 -9.03994,17.04066 l -8.99288,15.43062 -19.54858,-0.038 -19.54857,-0.038 z"
   id="path164" /><path
   style="fill:#bcd35f;stroke-width:1.43541"
   d="m 450.38138,364.45886 -9.61359,-16.64162 9.42374,-16.41232 9.42373,-16.41231 19.49659,0.39843 19.49658,0.39843 9.06899,15.62113 c 4.98795,8.59162 9.06899,15.94547 9.06899,16.34188 0,0.39642 -4.26294,8.06189 -9.4732,17.03438 l -9.4732,16.31362 h -18.90252 -18.90253 z"
   id="path165" /><path
   style="fill:#bcd35f;stroke-width:1.43541"
   d="m 398.52218,274.52153 c -1.11236,-1.77631 -5.55478,-9.41584 -9.87205,-16.97673 l -7.84957,-13.74706 9.50788,-16.39648 9.50789,-16.39648 18.90406,-0.3999 18.90407,-0.39991 5.65552,9.73005 c 3.11054,5.35153 7.45024,12.96593 9.64378,16.9209 l 3.98826,7.19085 -9.67632,16.85221 -9.67633,16.85222 h -18.50736 c -17.63663,0 -18.60251,-0.15195 -20.52983,-3.22967 z"
   id="path166" /><path
   style="fill:#bcd35f;stroke-width:1.43541"
   d="m 690.22075,225.54654 -9.48568,-16.31949 9.51285,-16.65279 9.51285,-16.65279 18.97218,-0.0421 18.97218,-0.0421 7.81145,13.27751 c 12.76623,21.69939 12.57852,18.44107 2.11594,36.72819 l -9.11577,15.9331 -19.40516,0.045 -19.40516,0.045 z"
   id="path167" /><path
   style="fill:#bcd35f;stroke-width:1.43541"
   d="m 698.55714,308.97129 c -1.09312,-1.77631 -4.4339,-7.42823 -7.42395,-12.55981 -2.99004,-5.13158 -6.57674,-11.26794 -7.97043,-13.63636 l -2.53399,-4.30622 9.65868,-16.50718 9.65867,-16.50717 18.79042,-0.39957 18.79042,-0.39957 9.46619,16.30154 c 5.2064,8.96584 9.46618,16.84622 9.46618,17.51195 0,0.66573 -4.24914,8.52779 -9.44254,17.47124 l -9.44254,16.26082 h -18.5148 c -17.65471,0 -18.60713,-0.15004 -20.50231,-3.22967 z"
   id="path168" /><path
   style="fill:#bcd35f;stroke-width:1.43541"
   d="m 210.31416,641.72622 -9.52786,-16.40774 9.5353,-16.60661 9.53529,-16.60661 h 19.06865 19.06865 l 9.55194,16.50012 9.55193,16.50011 -9.48226,16.51424 -9.48226,16.51424 h -19.14576 -19.14576 z"
   id="path176" /><path
   style="fill:#bcd35f;stroke-width:1.43541"
   d="m 90.192446,641.76579 -9.513986,-16.36819 9.541153,-16.65754 9.541153,-16.65755 19.280294,0.37023 19.28029,0.37023 9.12048,15.70979 c 5.01626,8.64038 8.93582,16.40364 8.71014,17.25168 -0.22569,0.84804 -4.28594,8.46277 -9.02278,16.92163 l -8.61244,15.37973 -19.40516,0.0241 -19.405159,0.0241 z"
   id="path177" /><path
   style="fill:#bcd35f;stroke-width:1.43541"
   d="m 330.8493,711.88835 c -11.11147,-19.13485 -11.26179,-15.70253 1.64877,-37.64722 l 7.83569,-13.31868 18.85528,0.40002 18.85527,0.40002 9.58213,16.40654 9.58214,16.40654 -9.70774,16.60781 -9.70774,16.60782 -18.63428,0.39935 -18.63428,0.39936 z"
   id="path178" /></svg>
